<svg width="60" height="60" viewBox="0 0 60 60" fill="none" xmlns="http://www.w3.org/2000/svg">
<path d="M55.195 20.8675C54.8502 20.5135 54.4345 20.2366 53.975 20.055V11.6175C53.975 11.1421 53.7862 10.6861 53.45 10.35C53.1138 10.0138 52.6579 9.82495 52.1825 9.82495C51.7071 9.82495 51.2512 10.0138 50.915 10.35C50.5789 10.6861 50.39 11.1421 50.39 11.6175V19.625H49.865C49.0248 16.7956 47.2934 14.3132 44.9284 12.5474C42.5635 10.7816 39.6915 9.82671 36.74 9.82495H23.5675C20.616 9.82671 17.7441 10.7816 15.3791 12.5474C13.0142 14.3132 11.2827 16.7956 10.4425 19.625H9.75V11.6175C9.75 11.1421 9.56115 10.6861 9.22499 10.35C8.88883 10.0138 8.4329 9.82495 7.9575 9.82495C7.4821 9.82495 7.02617 10.0138 6.69001 10.35C6.35386 10.6861 6.165 11.1421 6.165 11.6175V20.0799C5.72782 20.2658 5.32993 20.5331 4.9925 20.8675C4.19915 21.6697 3.7529 22.7517 3.75 23.88V36.1199C3.74934 36.6789 3.85895 37.2325 4.07256 37.749C4.28616 38.2656 4.59955 38.7349 4.9948 39.1302C5.39004 39.5254 5.85937 39.8388 6.37591 40.0524C6.89244 40.266 7.44604 40.3756 8.005 40.375H10.395C11.2352 43.2043 12.9667 45.6867 15.3316 47.4525C17.6966 49.2183 20.5685 50.1732 23.52 50.1749H36.4775C39.429 50.1732 42.301 49.2183 44.6659 47.4525C47.0309 45.6867 48.7623 43.2043 49.6025 40.375H51.99C52.549 40.3756 53.1026 40.266 53.6191 40.0524C54.1356 39.8388 54.605 39.5254 55.0002 39.1302C55.3955 38.7349 55.7089 38.2656 55.9225 37.749C56.1361 37.2325 56.2457 36.6789 56.245 36.1199V23.88C56.295 22.78 55.9175 21.7 55.195 20.8675ZM9.99 36.7899H8.1C7.92166 36.7914 7.74999 36.7222 7.6225 36.5975C7.50491 36.4656 7.43763 36.2965 7.4325 36.1199V23.88C7.42707 23.7092 7.48907 23.5432 7.6051 23.4178C7.72113 23.2924 7.88185 23.2177 8.0525 23.21H9.99C9.97912 23.3138 9.97912 23.4186 9.99 23.5225V36.4774C9.97912 36.5813 9.97912 36.6861 9.99 36.7899ZM20.77 29.6175V24.7175C20.7383 24.4333 20.767 24.1457 20.8541 23.8734C20.9411 23.601 21.0847 23.3502 21.2753 23.1371C21.466 22.924 21.6994 22.7536 21.9604 22.6369C22.2214 22.5202 22.5041 22.4599 22.79 22.4599C23.0759 22.4599 23.3586 22.5202 23.6196 22.6369C23.8806 22.7536 24.114 22.924 24.3047 23.1371C24.4953 23.3502 24.6389 23.601 24.7259 23.8734C24.813 24.1457 24.8417 24.4333 24.81 24.7175V29.6175C24.8417 29.9016 24.813 30.1892 24.7259 30.4615C24.6389 30.7339 24.4953 30.9847 24.3047 31.1978C24.114 31.4109 23.8806 31.5813 23.6196 31.698C23.3586 31.8147 23.0759 31.875 22.79 31.875C22.5041 31.875 22.2214 31.8147 21.9604 31.698C21.6994 31.5813 21.466 31.4109 21.2753 31.1978C21.0847 30.9847 20.9411 30.7339 20.8541 30.4615C20.767 30.1892 20.7383 29.9016 20.77 29.6175ZM36.4775 38.7724C34.7905 40.4396 32.5143 41.3746 30.1425 41.3746C27.7707 41.3746 25.4945 40.4396 23.8075 38.7724C23.4758 38.44 23.2695 38.0029 23.2236 37.5355C23.1778 37.0681 23.2952 36.5993 23.5559 36.2087C23.8166 35.818 24.2045 35.5298 24.6537 35.3928C25.1029 35.2559 25.5857 35.2787 26.02 35.4574C26.266 35.5614 26.4887 35.7135 26.675 35.905C27.6115 36.7913 28.8519 37.2852 30.1413 37.2852C31.4306 37.2852 32.6711 36.7913 33.6075 35.905C33.7946 35.7142 34.0179 35.5626 34.2643 35.4591C34.5107 35.3557 34.7753 35.3024 35.0425 35.3024C35.3097 35.3024 35.5743 35.3557 35.8207 35.4591C36.0671 35.5626 36.2904 35.7142 36.4775 35.905C36.669 36.094 36.821 36.3192 36.9247 36.5675C37.0285 36.8157 37.0819 37.0821 37.0819 37.3512C37.0819 37.6203 37.0285 37.8867 36.9247 38.1349C36.821 38.3832 36.669 38.6084 36.4775 38.7975V38.7724ZM39.895 29.5475H35.1125C34.7116 29.5468 34.32 29.4275 33.9868 29.2045C33.6537 28.9816 33.394 28.665 33.2405 28.2947C33.087 27.9243 33.0466 27.5169 33.1244 27.1236C33.2022 26.7304 33.3946 26.369 33.6775 26.0849C33.8662 25.8978 34.0902 25.7501 34.3366 25.6505C34.583 25.5509 34.8468 25.5014 35.1125 25.5049H39.895C40.2294 25.5 40.5597 25.5784 40.8562 25.7332C41.1526 25.8879 41.4058 26.1141 41.5929 26.3913C41.78 26.6684 41.8951 26.9879 41.9278 27.3207C41.9604 27.6535 41.9096 27.9892 41.78 28.2975C41.6293 28.6739 41.3691 28.9964 41.033 29.2233C40.6969 29.4502 40.3005 29.571 39.895 29.57V29.5475ZM52.85 36.0975C52.8443 36.2732 52.7771 36.4413 52.66 36.5724C52.5325 36.6972 52.3609 36.7664 52.1825 36.765H50.2925C50.3032 36.6619 50.3032 36.558 50.2925 36.455V23.4249C50.3032 23.3219 50.3032 23.218 50.2925 23.115H52.205C52.2899 23.1144 52.3741 23.1312 52.4523 23.1643C52.5306 23.1974 52.6012 23.2461 52.66 23.3075C52.78 23.4375 52.85 23.6074 52.85 23.7824V36.0975Z" fill="#DADADA"/>
</svg>
