<svg width="58" height="58" viewBox="0 0 58 58" fill="none" xmlns="http://www.w3.org/2000/svg">
<path d="M49.4341 8.56588L55.5096 9.78025C55.8359 9.8455 56.1041 10.0848 56.1984 10.4074C56.246 10.5641 56.2502 10.7308 56.2106 10.8897C56.1711 11.0487 56.0892 11.1939 55.9736 11.31L50.9965 16.2908C50.4001 16.8838 49.5937 17.2173 48.7526 17.2188H44.6238L34.2562 27.5899C34.454 28.3367 34.4904 29.1171 34.363 29.8791C34.2355 30.6411 33.9471 31.3672 33.517 32.009C33.0869 32.6508 32.525 33.1935 31.8687 33.6011C31.2124 34.0087 30.4768 34.2718 29.7108 34.3728C28.9449 34.4738 28.1662 34.4104 27.4267 34.1869C26.6871 33.9634 26.0037 33.5848 25.422 33.0764C24.8402 32.568 24.3735 31.9415 24.0529 31.2386C23.7322 30.5357 23.5651 29.7726 23.5625 29C23.5623 28.1656 23.7542 27.3424 24.1232 26.594C24.4922 25.8457 25.0285 25.1923 25.6906 24.6845C26.3526 24.1766 27.1226 23.828 27.941 23.6655C28.7595 23.503 29.6043 23.531 30.4101 23.7474L40.7812 13.3726V9.251C40.7812 8.41 41.1147 7.60163 41.7092 7.00713L46.69 2.02638C46.8061 1.91085 46.9513 1.82894 47.1103 1.78936C47.2692 1.74979 47.4359 1.75403 47.5926 1.80163C47.9152 1.89588 48.1545 2.16413 48.2198 2.49038L49.4341 8.56588Z" fill="black"/>
<path d="M7.25001 29C7.25374 32.1101 7.92442 35.1833 9.21682 38.0121C10.5092 40.841 12.3933 43.3598 14.7419 45.3986C17.0905 47.4374 19.8491 48.9488 22.8315 49.8309C25.8139 50.713 28.9508 50.9451 32.0306 50.5118C35.1103 50.0784 38.0613 48.9896 40.6845 47.3188C43.3077 45.648 45.5421 43.434 47.2369 40.8263C48.9317 38.2185 50.0475 35.2776 50.5091 32.2019C50.9707 29.1263 50.7673 25.9874 49.9126 22.997C49.7926 22.6476 49.745 22.2775 49.7726 21.9091C49.8002 21.5408 49.9025 21.1819 50.0733 20.8543C50.244 20.5267 50.4797 20.2374 50.7658 20.0038C51.052 19.7702 51.3827 19.5972 51.7378 19.4955C52.0929 19.3938 52.465 19.3654 52.8315 19.4121C53.1979 19.4588 53.551 19.5796 53.8693 19.7671C54.1875 19.9546 54.4643 20.2049 54.6828 20.5028C54.9012 20.8007 55.0567 21.14 55.1399 21.4999C56.7948 27.2909 56.4804 33.4675 54.2461 39.0606C52.0119 44.6537 47.9841 49.3468 42.7946 52.4038C37.6052 55.4607 31.5478 56.7084 25.5728 55.9512C19.5977 55.1939 14.043 52.4746 9.78026 48.2198C5.52213 43.958 2.79987 38.4029 2.0409 32.4264C1.28193 26.45 2.52922 20.3907 5.58695 15.1999C8.64467 10.0091 13.3397 5.98076 18.9348 3.74732C24.53 1.51387 30.7084 1.20182 36.5001 2.86013C37.1898 3.06173 37.7715 3.5281 38.1184 4.15735C38.4652 4.78659 38.5488 5.52753 38.351 6.21825C38.1531 6.90896 37.69 7.49329 37.0626 7.84353C36.4353 8.19377 35.6948 8.28144 35.003 8.08738C31.7643 7.15738 28.3539 6.99259 25.0406 7.60598C21.7274 8.21938 18.6019 9.5942 15.9108 11.622C13.2198 13.6498 11.0366 16.2751 9.53361 19.2909C8.03061 22.3067 7.24886 25.6304 7.25001 29Z" fill="black"/>
<path d="M18.125 29C18.1252 30.9814 18.6664 32.9251 19.6901 34.6215C20.7139 36.318 22.1814 37.7027 23.9343 38.6263C25.6872 39.55 27.6591 39.9775 29.6372 39.8628C31.6152 39.7481 33.5244 39.0956 35.1589 37.9755C36.793 36.8526 38.0891 35.3044 38.9069 33.4981C39.7247 31.6919 40.0331 29.6965 39.7989 27.7276C39.7355 27.2499 39.8006 26.7638 39.9875 26.3196C40.1745 25.8754 40.4764 25.489 40.8623 25.2002C41.2481 24.9115 41.704 24.7308 42.1829 24.6768C42.6618 24.6227 43.1465 24.6973 43.587 24.8929C44.0274 25.0859 44.4087 25.3922 44.6921 25.7807C44.9755 26.1692 45.1508 26.6258 45.2001 27.1041C45.594 30.4685 44.9308 33.872 43.3025 36.8423C41.6742 39.8127 39.1616 42.2024 36.1135 43.6799C33.0654 45.1574 29.6329 45.6494 26.2925 45.0875C22.952 44.5256 19.8694 42.9378 17.4724 40.5444C15.0753 38.151 13.4828 35.0708 12.9159 31.7312C12.3489 28.3916 12.8357 24.9584 14.3085 21.9081C15.7814 18.8577 18.1673 16.3415 21.1352 14.7087C24.103 13.0759 27.5055 12.4075 30.8705 12.7963C31.2308 12.8297 31.5808 12.9347 31.9 13.1052C32.2192 13.2756 32.5012 13.5081 32.7293 13.7889C32.9575 14.0697 33.1274 14.3933 33.2289 14.7406C33.3304 15.088 33.3616 15.4521 33.3205 15.8116C33.2795 16.1711 33.1671 16.5188 32.99 16.8343C32.8129 17.1499 32.5745 17.4269 32.2889 17.6491C32.0033 17.8713 31.6763 18.0343 31.3269 18.1284C30.9775 18.2226 30.6128 18.2461 30.2542 18.1975C28.7305 18.0206 27.1866 18.168 25.7239 18.6301C24.2611 19.0923 22.9127 19.8586 21.7672 20.8788C20.6217 21.8991 19.7049 23.1501 19.0772 24.5497C18.4495 25.9494 18.125 27.466 18.125 29Z" fill="black"/>
</svg>
