<svg width="24" height="24" viewBox="0 0 24 24" fill="none" xmlns="http://www.w3.org/2000/svg">
<path d="M8 20C7.45 20 6.97933 19.8043 6.588 19.413C6.19667 19.0217 6.00067 18.5507 6 18V15H9V12.75C8.41667 12.7167 7.86267 12.5877 7.338 12.363C6.81333 12.1383 6.334 11.8007 5.9 11.35V10.25H4.75L1.5 7C2.1 6.23333 2.84167 5.69167 3.725 5.375C4.60833 5.05833 5.5 4.9 6.4 4.9C6.85 4.9 7.28767 4.93333 7.713 5C8.13833 5.06667 8.56733 5.19167 9 5.375V4H21V17C21 17.8333 20.7083 18.5417 20.125 19.125C19.5417 19.7083 18.8333 20 18 20H8ZM11 15H17V17C17 17.2833 17.096 17.521 17.288 17.713C17.48 17.905 17.7173 18.0007 18 18C18.2827 17.9993 18.5203 17.9033 18.713 17.712C18.9057 17.5207 19.0013 17.2833 19 17V6H11V6.6L17 12.6V14H15.6L12.75 11.15L12.55 11.35C12.3167 11.5833 12.071 11.7917 11.813 11.975C11.555 12.1583 11.284 12.3 11 12.4V15ZM5.6 8.25H7.9V10.4C8.1 10.5333 8.30833 10.625 8.525 10.675C8.74167 10.725 8.96667 10.75 9.2 10.75C9.58333 10.75 9.92933 10.6917 10.238 10.575C10.5467 10.4583 10.8507 10.25 11.15 9.95L11.35 9.75L9.95 8.35C9.46667 7.86667 8.925 7.504 8.325 7.262C7.725 7.02 7.08333 6.89933 6.4 6.9C6.06667 6.9 5.75 6.925 5.45 6.975C5.15 7.025 4.85 7.1 4.55 7.2L5.6 8.25ZM15 17H8V18H15.15C15.1 17.85 15.0627 17.6917 15.038 17.525C15.0133 17.3583 15.0007 17.1833 15 17Z" fill="black"/>
</svg>
