<svg width="25" height="26" viewBox="0 0 25 26" fill="none" xmlns="http://www.w3.org/2000/svg">
<g clip-path="url(#clip0_126_17)">
<path d="M24.6094 0.612966C24.9163 0.841036 25.0419 1.14513 24.9861 1.52525L21.4146 23.42C21.3681 23.6956 21.2193 23.9094 20.9682 24.0614C20.838 24.1375 20.6938 24.1755 20.5357 24.1755C20.4334 24.1755 20.3218 24.1517 20.2009 24.1042L12.8488 21.0395L8.69141 25.7007C8.524 25.9002 8.30544 26 8.03572 26C7.90551 26 7.79856 25.981 7.71485 25.943C7.53814 25.8765 7.39863 25.7648 7.29632 25.608C7.19402 25.4512 7.14286 25.2778 7.14286 25.0877V18.6448L0.558044 15.8937C0.213922 15.7606 0.02791 15.4993 8.26013e-06 15.1097C-0.0278935 14.7391 0.120916 14.4587 0.446437 14.2687L23.6607 0.584457C23.9862 0.384896 24.3025 0.394399 24.6094 0.612966ZM19.8382 21.9803L22.9213 3.12174L2.91574 14.9101L7.60324 16.863L19.6429 7.75441L12.9743 19.1152L19.8382 21.9803Z" fill="#EA4E0D"/>
</g>
<defs>
<clipPath id="clip0_126_17">
<rect width="25" height="26" fill="white"/>
</clipPath>
</defs>
</svg>
